<svg xmlns="http://www.w3.org/2000/svg" width="62" height="62" viewBox="0 0 62 62" fill="none">
<g clip-path="url(#clip0_14_307)">
<path d="M38.5565 7.7855C38.3204 7.79101 35.2374 8.11342 35.0519 8.15673C34.9797 8.16973 34.9415 8.29701 34.4855 9.9987L33.9952 11.8287L33.8873 11.824C31.3135 11.7248 28.7377 12.0861 26.6546 12.8422C25.4992 13.2606 24.0978 13.9931 23.2601 14.6139C21.3728 16.0129 20.1993 17.7812 19.6894 19.9861C19.3796 21.3387 19.3526 22.4355 19.5959 23.6856C20.1519 26.5157 22.3164 29.1986 25.938 31.5602C26.6063 31.994 27.5482 32.5538 28.077 32.8289L28.3315 32.9658L26.997 37.9464L25.6614 42.9307L25.1893 42.7759C24.2225 42.4602 23.0882 41.9541 22.063 41.3882C20.5178 40.5294 19.2809 39.652 17.6181 38.2359C16.8811 37.6057 16.6189 37.4222 16.3052 37.3098L16.0811 37.2255L15.8392 37.3588C15.4489 37.5778 15.4272 37.6286 15.0344 39.5171L14.7717 40.7691L15.1911 41.2414C16.8011 43.0356 18.5153 44.4412 20.3484 45.4784C21.6127 46.1932 22.5301 46.5725 23.8158 46.921L24.578 47.1253L23.9451 49.4873C23.1734 52.3823 23.0997 52.7629 23.2431 53.1936C23.3903 53.6253 24.0933 53.8541 24.8187 53.7128C25.6933 53.5428 26.7178 52.5717 27.2969 51.3762C27.4707 51.0143 27.5877 50.6534 28.0818 48.9902C28.2969 48.2633 28.4785 47.6609 28.487 47.6591C28.4966 47.6536 28.8242 47.6686 29.217 47.697C32.2629 47.8903 34.8978 47.3387 37.3014 46.0052C39.113 44.9943 40.3988 43.7576 41.2965 42.1581C41.9403 41.0082 42.3871 39.5669 42.4625 38.4103C42.6615 35.2526 40.7609 32.4302 36.5184 29.5787C36.0077 29.2357 34.9039 28.5557 34.4148 28.2831L34.275 28.2012L34.3693 27.8948C34.4723 27.5706 36.3822 21.2277 37.059 18.9583C37.2788 18.2286 37.5094 17.4735 37.5733 17.2804L37.69 16.9355L37.9178 17.0208C38.9354 17.4189 40.6857 18.3125 41.3864 18.7914L41.7077 19.0109L42.6355 21.4797C43.1452 22.8376 43.5954 24.0097 43.6369 24.0815C43.7664 24.3224 43.9668 24.4651 44.2304 24.5074C44.5527 24.5574 44.902 24.5216 45.0876 24.4176C45.4338 24.2273 45.408 24.2932 46.5266 20.8279C47.0843 19.109 47.5959 17.5314 47.6629 17.3269L47.7886 16.9481L47.2182 16.5567C45.4583 15.3369 43.7989 14.4515 41.8851 13.7001C41.2111 13.4386 39.922 13.0124 39.2542 12.8334L38.8844 12.7343L39.0011 12.3895C39.063 12.2039 39.3347 11.3708 39.5996 10.5481L40.0798 9.04293L39.976 8.73608C39.9201 8.56742 39.8305 8.37356 39.7767 8.30254C39.5458 8.00208 39.0189 7.78002 38.5565 7.7855ZM31.5395 20.9936L30.1544 26.1629L29.9733 26.0537C28.1931 24.9701 26.6912 23.678 26.0571 22.679C25.543 21.8659 25.3714 20.9666 25.5472 19.9785C25.7869 18.6313 26.5088 17.5671 27.6422 16.884C28.8415 16.166 30.4713 15.7737 32.1861 15.7883C32.5167 15.792 32.8206 15.8047 32.8594 15.811C32.9198 15.8272 32.8507 16.0999 31.5395 20.9936ZM32.8415 35.1813C34.6182 36.4136 35.8423 37.7162 36.1878 38.751C36.5742 39.8898 36.1893 41.1455 35.1771 42.0551C34.2988 42.8429 32.6587 43.4549 30.8654 43.6579C30.3072 43.7186 29.7013 43.7463 29.6867 43.71C29.6784 43.6957 32.2906 34.8678 32.3137 34.8417C32.3263 34.8248 32.3638 34.8511 32.8415 35.1813Z" fill="#8E6808" fill-opacity="0.4"/>
</g>
<defs>
<clipPath id="clip0_14_307">
<rect width="50" height="50" fill="white" transform="translate(12.9409) rotate(15)"/>
</clipPath>
</defs>
</svg>