<svg xmlns="http://www.w3.org/2000/svg" width="62" height="62" viewBox="0 0 62 62" fill="none">
<g clip-path="url(#clip0_14_310)">
<path d="M26.0766 6.87599C25.8749 6.99878 23.3662 8.81951 23.2272 8.94977C23.1711 8.99714 23.2017 9.12644 23.6577 10.8281L24.148 12.6581L24.0522 12.708C21.7737 13.909 19.7236 15.5098 18.2977 17.2062C17.5062 18.1462 16.6588 19.4813 16.2438 20.4377C15.3088 22.593 15.1767 24.7111 15.8375 26.8755C16.2455 28.2018 16.7705 29.1652 17.6063 30.1261C19.5029 32.2991 22.7189 33.5403 27.036 33.7747C27.8317 33.8163 28.9273 33.8301 29.5229 33.8039L29.8117 33.7953L31.1462 38.7758L32.4818 43.7602L31.9955 43.8622C31.0004 44.0722 29.765 44.201 28.5943 44.2235C26.8266 44.2523 25.3167 44.1109 23.1686 43.716C22.2153 43.5387 21.8964 43.5109 21.5686 43.5704L21.3324 43.6095L21.1895 43.8459C20.961 44.2307 20.9676 44.2855 21.5717 46.1174L21.9702 47.333L22.5696 47.5323C24.861 48.2812 27.0483 48.6414 29.1544 48.623C30.6067 48.6099 31.5909 48.4797 32.8786 48.1387L33.6407 47.9345L34.2736 50.2965C35.0528 53.1895 35.1794 53.5559 35.5189 53.8572C35.8622 54.1575 36.5855 54.0041 37.143 53.5191C37.8154 52.9345 38.2171 51.5813 38.1209 50.2564C38.0905 49.8561 38.0113 49.485 37.6077 47.7976C37.4304 47.0606 37.2865 46.448 37.293 46.4423C37.2986 46.4327 37.5898 46.2819 37.9441 46.1101C40.6786 44.7546 42.6847 42.9594 44.0995 40.6027C45.163 38.8215 45.6582 37.1076 45.6358 35.2735C45.6184 33.9558 45.2848 32.4842 44.7717 31.4448C43.3653 28.6107 40.308 27.1167 35.2082 26.7685C34.5944 26.7267 33.2985 26.6898 32.7387 26.6982L32.5766 26.6972L32.505 26.3848C32.4322 26.0524 30.9147 19.6044 30.3662 17.3007C30.1917 16.5588 30.0138 15.7896 29.9726 15.5904L29.9012 15.2334L30.1412 15.1933C31.2215 15.0292 33.184 14.928 34.0303 14.9924L34.4184 15.0219L36.4563 16.696C37.5766 17.6171 38.5526 18.4071 38.6243 18.4485C38.857 18.5924 39.1019 18.6158 39.3514 18.5206C39.6554 18.4027 39.94 18.1971 40.0488 18.0143C40.2534 17.6763 40.2641 17.7463 39.5002 14.186C39.1236 12.4185 38.778 10.7964 38.7337 10.5859L38.6532 10.195L37.9634 10.1412C35.8295 9.96483 33.9496 10.0277 31.9166 10.3339C31.2022 10.4444 29.8727 10.7198 29.2048 10.8987L28.835 10.9978L28.7637 10.6408C28.7244 10.4492 28.5432 9.59184 28.3613 8.74685L28.0245 7.20329L27.7812 6.98945C27.6485 6.87135 27.474 6.74826 27.3919 6.71363C27.0417 6.56886 26.4744 6.64 26.0766 6.87599ZM26.6038 21.8231L27.9889 26.9923L27.7775 26.9883C25.694 26.9399 23.7472 26.5719 22.6986 26.0238C21.8468 25.5767 21.2486 24.8837 20.9068 23.94C20.4407 22.6535 20.5338 21.3709 21.1738 20.2126C21.8535 18.9912 23.0687 17.8366 24.5611 16.9918C24.8493 16.8297 25.1188 16.6887 25.1555 16.6748C25.2159 16.6587 25.2925 16.9293 26.6038 21.8231ZM34.8252 33.4589C36.98 33.6377 38.6914 34.1538 39.5081 34.8772C40.4121 35.6703 40.7065 36.9502 40.2848 38.244C39.9181 39.3655 38.8037 40.7155 37.3521 41.7879C36.8991 42.1196 36.3882 42.4465 36.3575 42.4224C36.3431 42.4141 34.1913 33.4629 34.1983 33.4287C34.2008 33.4078 34.2464 33.4118 34.8252 33.4589Z" fill="#8E6808" fill-opacity="0.4"/>
</g>
<defs>
<clipPath id="clip0_14_310">
<rect width="50" height="50" fill="white" transform="translate(0 12.9409) rotate(-15)"/>
</clipPath>
</defs>
</svg>