<svg xmlns="http://www.w3.org/2000/svg" width="50" height="50" viewBox="0 0 50 50" fill="none">
<path d="M18.1487 13.0084C17.0268 13.1223 16.1953 13.3729 15.3125 13.871C14.2703 14.4569 13.359 15.3847 12.8123 16.41C12.4051 17.1783 12.1573 17.9888 12.0406 18.9296C11.9865 19.3593 11.9865 20.3261 12.0406 20.8176C12.2285 22.5363 12.9176 24.1574 14.1734 25.8436C14.5009 26.2863 15.4435 27.3638 15.8849 27.8033C16.8531 28.7668 17.5906 29.4211 19.4729 30.9901C21.6114 32.774 22.3661 33.4641 23.1349 34.3397C23.6589 34.9387 24.0034 35.427 24.2199 35.8762C24.2882 36.0162 24.348 36.1301 24.3566 36.1301C24.3651 36.1301 24.4306 36.0162 24.5075 35.8729C24.721 35.4628 24.9688 35.108 25.3675 34.6392C26.1335 33.7408 26.945 33.0051 29.0694 31.2994C30.852 29.8671 31.5781 29.2616 32.3014 28.6008C34.3061 26.7746 35.5135 25.2121 36.2596 23.4869C36.7779 22.289 37 21.2375 37 19.9712C37 18.6952 36.7636 17.6568 36.2454 16.6509C35.132 14.483 32.8624 13.119 30.3793 13.119C29.2801 13.119 28.3062 13.3632 27.4092 13.8677C26.0651 14.6229 25.1539 15.7818 24.6271 17.4094L24.5189 17.7447L24.3964 17.3508C23.6674 14.9843 21.9532 13.4608 19.5868 13.0669C19.3049 13.0214 18.3936 12.9823 18.1487 13.0084ZM20.2987 13.3925C21.0704 13.5422 21.7396 13.8417 22.349 14.3072C23.3229 15.0494 23.9807 16.078 24.385 17.4778L24.5217 17.9465L24.5958 17.6666C25.0343 16.0259 25.9911 14.7141 27.2611 14.0175C29.4111 12.8358 32.1306 13.4348 33.8164 15.4595C34.833 16.677 35.3484 18.2297 35.3484 20.0624C35.3484 21.4947 35.0807 22.7186 34.4713 24.0728C33.9787 25.1633 33.3209 26.1659 32.3726 27.2759C31.3873 28.425 30.6754 29.1314 28.5141 31.078C25.9455 33.3925 25.1055 34.33 24.4961 35.5767L24.3622 35.8469L24.2626 35.6255C24.106 35.2707 23.7899 34.7466 23.4823 34.3235C22.8729 33.4934 22.0158 32.608 20.0424 30.759C18.9717 29.7564 18.368 29.1737 17.8924 28.6854C17.4625 28.2427 16.5398 27.1913 16.2152 26.7746C14.7259 24.8606 13.9058 22.9921 13.6922 21.0292C13.6381 20.5181 13.6352 19.5643 13.6894 19.0761C13.9286 16.8755 14.9765 15.1145 16.6452 14.0988C17.266 13.7212 18.0633 13.4413 18.7894 13.3469C19.1055 13.3078 19.9911 13.3339 20.2987 13.3925Z" fill="#8E6808" fill-opacity="0.4"/>
</svg>