<svg xmlns="http://www.w3.org/2000/svg" width="70" height="73" viewBox="0 0 70 73" fill="none">
<path d="M20.1067 0.0329285C16.9002 0.249847 13.557 1.33443 10.8157 3.04349C9.01549 4.1741 7.59284 5.40987 6.21944 7.04004C5.13603 8.32182 4.35358 9.51159 3.45074 11.2206C1.57941 14.7702 0.506953 18.1949 0.0965733 21.9088C-0.018333 22.9934 -0.0347482 25.787 0.0692146 26.8387C0.676576 32.8204 3.04036 38.4734 7.4451 44.4814C12.2931 51.0941 20.0957 58.2458 29.8737 65.0294C30.3881 65.3844 30.9681 65.7854 31.1705 65.9234L31.5371 66.1798L31.373 66.6596C31.0337 67.6325 30.6124 69.703 30.6835 70.0383C30.6999 70.1106 30.7109 70.0777 30.7164 69.9594C30.7382 69.3941 31.1924 67.4813 31.5152 66.6005L31.6411 66.2521L32.6752 66.9423C34.0377 67.8625 36.8009 69.657 38.3002 70.597C40.5217 71.9971 41.8842 72.8319 41.8842 72.7991C41.8842 72.7793 41.6708 72.6216 41.4081 72.4507C38.8364 70.7811 31.8709 65.8314 31.8709 65.6802C31.8709 65.621 32.2594 64.7271 32.5603 64.1026C32.905 63.3861 33.7203 61.9006 34.1034 61.2827C34.4262 60.77 34.4645 60.6845 34.2237 61.0066C33.6437 61.7888 32.5986 63.6688 32.0515 64.9046C31.8873 65.2792 31.745 65.5882 31.7286 65.5882C31.663 65.5882 29.0092 63.4979 27.6905 62.4133C22.9629 58.5153 19.2531 54.9263 16.0904 51.1927C7.76246 41.3591 4.5232 31.703 6.40548 22.2769C7.0785 18.9114 8.61605 15.0923 10.4272 12.2789C10.9306 11.4967 12.0906 10.0637 12.7746 9.37355C15.9865 6.14607 20.3255 4.38444 24.6482 4.5422C27.1433 4.63422 29.1788 5.21924 31.2416 6.42873C35.422 8.86741 37.8843 13.3372 38.147 18.9442L38.1853 19.7396L38.2619 18.9508C38.3658 17.8334 38.3658 15.3224 38.2564 14.4152C37.857 10.9971 36.7024 8.15749 34.7709 5.83713C31.9803 2.47161 27.9805 0.486488 23.1161 0.0526505C22.4431 -0.00650787 20.8454 -0.0196533 20.1067 0.0329285Z" fill="#8E6808" fill-opacity="0.4"/>
<path d="M56.335 9.19606C52.9589 9.48528 49.5719 11.1023 46.8087 13.7382C46.3491 14.172 45.1672 15.4341 45.1672 15.4867C45.1672 15.5064 45.211 15.4735 45.2657 15.4209C45.3149 15.3684 45.5447 15.1317 45.7691 14.9017C48.9974 11.569 53.4733 9.61017 57.1776 9.91254C60.116 10.1492 62.3539 11.385 64.6465 14.034C65.905 15.4801 66.6656 16.8999 66.9775 18.3921C67.1252 19.0954 67.1143 20.3903 66.9556 21.1594C66.5507 23.1511 65.5822 25.0179 62.9613 28.8764C61.1337 31.5715 59.3718 33.4777 52.0342 40.7083C45.8402 46.8149 42.4751 50.3645 39.4492 53.9863C38.0102 55.702 37.1073 56.8654 36.1334 58.2327C35.2907 59.4159 35.247 59.5013 35.8926 58.6928C36.1936 58.3181 36.4671 57.9632 36.5 57.904C36.6039 57.7265 38.7379 55.3404 39.586 54.4465C42.2562 51.6462 45.1125 49.0235 50.9399 44.0278C58.5729 37.4874 60.9039 35.3117 63.0324 32.7547C63.8914 31.7227 66.3483 28.0876 67.5849 26.0105C69.3249 23.0854 70.0854 20.8045 69.9924 18.8259C69.872 16.3543 68.4439 14.1589 65.5767 12.0554C63.1473 10.2675 61.0188 9.42612 58.3541 9.18948C57.5333 9.11718 57.2433 9.11718 56.335 9.19606Z" fill="#8E6808" fill-opacity="0.4"/>
</svg>