<svg xmlns="http://www.w3.org/2000/svg" width="150" height="150" viewBox="0 0 150 150" fill="none">
<path d="M7.9687 32.8594C8.06245 32.9414 19.0312 41.1328 32.3437 51.0469C45.6562 60.9609 60.5976 72.0937 65.5546 75.7852L74.5664 82.5L74.9296 82.2305C75.1289 82.0781 90.1171 70.9102 108.223 57.4219C126.34 43.9336 141.199 32.8476 141.258 32.7891C141.328 32.7422 111.316 32.6953 74.5898 32.6953C18.0937 32.6953 7.82807 32.7187 7.9687 32.8594Z" fill="#8E6808" fill-opacity="0.4"/>
<path d="M7.33592 67.7578C7.28904 83.7656 7.2656 101.227 7.28904 106.559L7.3242 116.262L20.7539 100.934C28.1484 92.5078 37.4062 81.9375 41.3437 77.4375L48.4922 69.2812L28.3242 54.2461C17.2265 45.9844 7.98045 39.0938 7.78123 38.9414L7.40623 38.6719L7.33592 67.7578Z" fill="#8E6808" fill-opacity="0.5"/>
<path d="M141.387 38.8828C141.258 39 132.141 45.8203 121.113 54.0234C110.098 62.2266 100.98 69.0234 100.875 69.1289C100.687 69.3047 100.898 69.5859 104.273 73.4297C106.254 75.6914 115.465 86.2031 124.746 96.7969L141.621 116.051L141.656 96.6914C141.668 86.0508 141.668 68.6367 141.656 58.0078C141.621 38.6719 141.621 38.6602 141.387 38.8828Z" fill="#8E6808" fill-opacity="0.5"/>
<path d="M85.957 80.2148C79.7109 84.8789 74.543 88.6641 74.4727 88.6172C74.4141 88.582 69.3047 84.7852 63.1406 80.1914C56.9648 75.5977 51.8672 71.8359 51.8086 71.8359C51.75 71.8359 42.8789 81.8906 32.1094 94.1836L12.5156 116.543L43.5938 116.578C60.6797 116.59 88.6055 116.59 105.645 116.578L136.617 116.543L117.059 94.2188C106.289 81.9375 97.4531 71.8594 97.4062 71.8125C97.3594 71.7773 92.2148 75.5508 85.957 80.2148Z" fill="#8E6808" fill-opacity="0.6"/>
</svg>